<?xml version="1.0" standalone="no"?>
<!DOCTYPE svg PUBLIC "-//W3C//DTD SVG 20010904//EN"
 "http://www.w3.org/TR/2001/REC-SVG-20010904/DTD/svg10.dtd">
<svg version="1.0" xmlns="http://www.w3.org/2000/svg"
 width="500.000000pt" height="500.000000pt" viewBox="0 0 500.000000 500.000000"
 preserveAspectRatio="xMidYMid meet">

<g transform="translate(0.000000,500.000000) scale(0.100000,-0.100000)"
fill="#000000" stroke="none">
<path d="M1885 3910 c-3 -5 -1 -10 4 -10 6 0 11 5 11 10 0 6 -2 10 -4 10 -3 0
-8 -4 -11 -10z"/>
<path d="M1650 3426 c0 -2 7 -9 15 -16 13 -11 14 -10 9 4 -5 14 -24 23 -24 12z"/>
<path d="M1500 3371 c0 -6 4 -13 10 -16 6 -3 7 1 4 9 -7 18 -14 21 -14 7z"/>
<path d="M1461 3334 c0 -11 3 -14 6 -6 3 7 2 16 -1 19 -3 4 -6 -2 -5 -13z"/>
<path d="M2207 3113 c-4 -3 -7 -105 -7 -225 l0 -218 70 0 c70 0 70 0 70 28 0
50 15 57 39 18 13 -20 30 -36 38 -36 42 0 143 23 143 33 0 5 -25 52 -55 104
l-55 94 43 57 42 57 5 -40 c5 -39 6 -40 43 -38 l37 2 0 -47 c0 -26 3 -84 7
-129 l6 -83 51 0 c96 0 92 -4 100 133 4 67 10 125 12 129 3 4 16 8 28 8 21 0
23 -4 23 -55 0 -137 137 -231 261 -180 70 30 109 82 121 164 l7 46 18 -34 c13
-24 18 -59 19 -120 l2 -86 85 0 85 0 1 85 c0 78 3 89 34 139 l33 54 13 -42 c7
-24 21 -52 31 -64 10 -11 13 -18 8 -14 -21 11 -32 -9 -39 -70 l-7 -62 38 -17
c21 -9 65 -18 98 -21 109 -8 186 54 187 151 1 27 -6 56 -18 75 -18 27 -19 38
-10 102 9 64 8 73 -8 85 -32 23 -116 28 -166 9 -53 -20 -53 -20 -151 -10 l-75
7 -18 -43 -18 -44 -19 43 -18 43 -68 -7 c-37 -4 -76 -11 -85 -16 -12 -5 -38
-2 -77 12 -33 11 -66 20 -73 20 -34 0 -92 -24 -122 -51 -42 -36 -50 -36 -43
-1 3 15 3 33 -1 38 -4 7 -93 13 -234 17 l-228 6 -15 -29 c-20 -38 -35 -38 -35
0 l0 30 -73 0 c-41 0 -77 -3 -80 -7z m506 -22 l137 -1 0 -54 0 -54 -39 -7 -39
-6 -7 -130 -7 -129 -52 0 -53 0 -6 83 c-4 45 -7 104 -7 131 l0 49 -40 -6 -40
-5 0 61 -1 62 -30 -35 c-16 -19 -46 -58 -66 -87 l-36 -52 56 -95 c30 -53 52
-98 49 -100 -4 -2 -32 -7 -63 -11 l-55 -7 -40 57 c-36 53 -39 55 -45 34 -4
-13 -7 -41 -8 -61 l-1 -38 -56 0 -57 0 7 38 c3 20 6 112 6 205 l0 167 63 0 63
0 -4 -62 c-2 -35 -2 -60 2 -57 3 3 23 32 44 65 l39 60 74 -7 c41 -4 136 -8
212 -8z m1074 -8 c10 -4 13 -20 11 -56 l-3 -51 -68 3 c-62 2 -68 1 -65 -16 2
-14 16 -19 60 -24 67 -7 83 -18 98 -64 24 -73 -28 -156 -106 -171 -42 -8 -111
0 -147 17 -24 11 -26 15 -20 58 3 25 7 47 8 48 1 2 17 -2 36 -7 51 -15 99 -12
106 5 8 22 3 25 -57 34 -60 10 -88 33 -96 82 -12 69 33 131 109 150 31 7 104
3 134 -8z m-652 -22 c43 -24 75 -86 75 -144 0 -142 -137 -231 -254 -164 -104
59 -122 186 -39 278 19 21 49 43 67 48 40 13 113 4 151 -18z m217 -39 c11 -29
23 -50 28 -47 4 3 16 27 26 55 l18 50 50 0 c28 0 56 -4 63 -8 8 -5 -9 -40 -53
-112 l-65 -105 7 -72 6 -73 -71 0 -71 0 0 80 c0 75 -3 86 -45 170 -25 49 -45
94 -45 99 0 10 54 19 104 17 25 -1 31 -7 48 -54z"/>
<path d="M2997 2952 c-36 -40 -10 -112 40 -112 46 0 72 80 37 114 -21 21 -57
20 -77 -2z m68 -47 c0 -43 -22 -58 -50 -35 -32 27 -10 84 30 78 16 -2 20 -11
20 -43z"/>
<path d="M3875 2681 l-60 -6 -3 -52 c-4 -63 1 -65 128 -61 l85 3 3 39 c2 22 1
50 -2 63 -7 25 -21 26 -151 14z m125 -25 c0 -7 3 -28 6 -45 l7 -32 -89 3 -89
3 -3 37 c-3 36 -2 37 35 41 91 9 133 7 133 -7z"/>
<path d="M2910 2531 c-25 -7 -25 -8 -28 -129 l-3 -121 28 -8 c53 -15 133 -7
164 16 l29 22 31 -23 c20 -15 43 -22 70 -22 47 2 69 18 70 53 0 14 4 35 9 46
6 14 9 4 9 -37 l1 -58 45 0 c38 0 45 3 45 20 0 25 9 26 26 3 10 -15 29 -18
103 -18 81 -1 91 1 91 17 0 23 30 24 36 1 4 -16 19 -18 107 -20 106 -2 151 7
163 35 5 14 8 13 13 -8 7 -27 29 -35 66 -26 29 7 33 26 36 151 l3 100 -60 1
c-32 0 -78 4 -100 8 -59 11 -110 -13 -130 -59 -13 -33 -13 -40 1 -67 12 -25
13 -33 3 -40 -10 -5 -20 15 -38 75 l-26 82 -55 3 -56 3 -28 -93 c-15 -51 -31
-96 -34 -101 -4 -4 -17 11 -30 33 l-22 40 35 42 c20 23 36 45 36 49 0 3 -21
12 -46 19 -42 12 -48 12 -59 -4 -11 -14 -13 -15 -19 -1 -4 10 -19 15 -50 15
-37 0 -45 -4 -49 -22 l-6 -22 -24 22 c-47 44 -108 38 -153 -15 l-22 -26 -11
22 c-23 43 -100 62 -171 42z m115 -15 c43 -18 62 -54 46 -85 -7 -11 -17 -21
-24 -21 -7 0 -2 -8 9 -18 36 -28 39 -58 10 -87 -21 -21 -34 -25 -85 -25 -94 0
-91 -4 -91 121 l0 108 33 10 c46 13 63 13 102 -3z m236 -26 c10 -14 20 -41 21
-60 l3 -35 -57 -9 c-61 -10 -68 -16 -43 -36 11 -9 22 -9 45 -2 29 11 30 10 30
-22 0 -38 -12 -46 -69 -46 -91 0 -130 136 -60 211 24 26 34 30 70 27 31 -2 47
-10 60 -28z m121 -7 l3 -38 23 37 c21 34 25 36 54 28 17 -5 33 -12 36 -14 2
-3 -9 -21 -27 -41 -17 -20 -31 -41 -31 -48 0 -7 15 -34 32 -62 l32 -50 35 113
35 113 46 -3 45 -3 31 -107 c17 -59 29 -109 26 -113 -12 -12 -70 -4 -76 10 -7
19 -56 20 -56 1 0 -10 -20 -15 -77 -19 l-78 -4 -32 36 -33 36 0 -37 c0 -37 -1
-38 -36 -38 l-37 0 7 38 c3 20 6 74 6 120 l0 82 34 0 c33 0 35 -2 38 -37z
m511 29 c3 -4 3 -20 0 -35 -5 -24 -9 -28 -29 -23 -25 7 -54 -1 -54 -15 0 -5
12 -9 28 -9 44 0 72 -26 72 -66 0 -50 -36 -84 -90 -84 -57 0 -80 14 -80 49 0
28 1 29 36 21 37 -9 64 -4 64 10 0 10 -26 20 -50 20 -51 0 -67 74 -25 115 19
20 34 25 74 25 27 0 52 -3 54 -8z m117 -46 c0 -29 -3 -81 -6 -115 l-7 -61 -33
0 -34 0 0 109 0 110 28 4 c15 2 33 5 40 6 8 1 12 -16 12 -53z m-90 -23 c0 -26
-3 -34 -11 -26 -9 9 -3 63 7 63 2 0 4 -17 4 -37z m-693 -79 c-3 -3 -12 -4 -19
-1 -8 3 -5 6 6 6 11 1 17 -2 13 -5z"/>
<path d="M2970 2434 c0 -31 23 -28 28 4 2 15 -2 22 -12 22 -11 0 -16 -9 -16
-26z"/>
<path d="M2966 2383 c-14 -15 -5 -43 14 -43 13 0 20 7 20 19 0 19 -23 35 -34
24z"/>
<path d="M3182 2448 c-19 -19 -14 -28 14 -28 18 0 25 5 22 17 -4 21 -21 26
-36 11z"/>
<path d="M3610 2416 c0 -8 -3 -21 -6 -30 -4 -11 -1 -16 10 -16 18 0 23 45 6
55 -5 3 -10 0 -10 -9z"/>
<path d="M2412 2068 c-7 -7 -12 -29 -12 -50 0 -42 26 -64 65 -54 30 8 41 60
20 93 -17 25 -53 31 -73 11z m42 -19 c-3 -5 -10 -7 -15 -3 -5 3 -7 10 -3 15 3
5 10 7 15 3 5 -3 7 -10 3 -15z"/>
<path d="M1717 2049 c7 -7 15 -10 18 -7 3 3 -2 9 -12 12 -14 6 -15 5 -6 -5z"/>
<path d="M2702 2010 c0 -14 2 -19 5 -12 2 6 2 18 0 25 -3 6 -5 1 -5 -13z"/>
<path d="M2305 1973 c-11 -3 -25 -10 -32 -15 -7 -5 -17 -7 -23 -3 -5 3 -10 1
-10 -5 0 -6 -7 -18 -15 -27 -14 -14 -12 -19 24 -54 71 -70 134 -42 135 60 1
44 0 46 -29 48 -16 0 -39 -1 -50 -4z"/>
<path d="M2106 1955 c-9 -9 -16 -23 -16 -30 0 -23 20 -60 39 -72 35 -22 94 45
65 74 -7 7 -14 17 -16 22 -6 19 -55 23 -72 6z m19 -25 c3 -5 -1 -10 -9 -10 -9
0 -16 5 -16 10 0 6 4 10 9 10 6 0 13 -4 16 -10z"/>
<path d="M2340 1815 c0 -5 5 -17 10 -25 5 -8 10 -10 10 -5 0 6 -5 17 -10 25
-5 8 -10 11 -10 5z"/>
<path d="M2010 1736 c0 -2 7 -7 16 -10 8 -3 12 -2 9 4 -6 10 -25 14 -25 6z"/>
<path d="M2370 1735 c0 -5 5 -17 10 -25 5 -8 10 -10 10 -5 0 6 -5 17 -10 25
-5 8 -10 11 -10 5z"/>
<path d="M2120 1670 c0 -5 5 -10 11 -10 5 0 7 5 4 10 -3 6 -8 10 -11 10 -2 0
-4 -4 -4 -10z"/>
<path d="M2390 1160 c0 -5 5 -10 11 -10 5 0 7 5 4 10 -3 6 -8 10 -11 10 -2 0
-4 -4 -4 -10z"/>
</g>
</svg>
